<svg width="11" height="18" viewBox="0 0 11 18" fill="none" xmlns="http://www.w3.org/2000/svg">
<path d="M9.38956 1.60488C7.23986 -0.534961 3.75427 -0.534961 1.61225 1.60488C-0.099835 3.30912 -0.491387 5.93042 0.644883 8.05498L5.49707 17.1111L10.3492 8.05498C11.4932 5.93042 11.1016 3.31676 9.38956 1.60488ZM7.6007 7.6423C6.43372 8.80393 4.55273 8.80393 3.38575 7.6423C2.21877 6.48067 2.21877 4.60831 3.38575 3.44668C4.55273 2.28505 6.43372 2.28505 7.6007 3.44668C8.76768 4.60831 8.76768 6.48831 7.6007 7.6423Z" fill="white"/>
<path fill-rule="evenodd" clip-rule="evenodd" d="M9.38956 1.60488C7.23986 -0.534961 3.75427 -0.534961 1.61225 1.60488C-0.099835 3.30912 -0.491387 5.93042 0.644883 8.05498L5.49707 17.1111L10.3492 8.05498C11.4932 5.93042 11.1016 3.31676 9.38956 1.60488ZM3.38575 7.6423C4.55273 8.80393 6.43372 8.80393 7.6007 7.6423C8.76768 6.48831 8.76768 4.60831 7.6007 3.44668C6.43372 2.28505 4.55273 2.28505 3.38575 3.44668C2.21877 4.60831 2.21877 6.48067 3.38575 7.6423Z" fill="white"/>
</svg>
